<svg width="1024" height="1024" viewBox="0 0 1024 1024" fill="none" xmlns="http://www.w3.org/2000/svg">
<rect width="1024" height="1024" rx="192" fill="white"/>
<path d="M859.739 355.001H824.842V669.079H859.739V783.544H595.913V669.079H629.415V424.796L510.763 783.544H407.466L285.325 428.286V669.079H318.826V783.544H89.8978V669.079H124.795V355.001H89.8978V240.537H409.56L482.147 458.298L551.942 240.537H859.739V355.001Z" fill="black"/>
<path d="M629.416 669.079H595.913V783.544H859.739V669.079H824.842V355.001H859.739V240.537H551.943L482.148 458.297L409.56 240.537H89.8976V355.001H124.795V669.079H89.8976V783.544H318.826V669.079H285.325V428.286L407.466 783.544H510.763L629.416 424.796V669.079ZM894.637 389.898H859.739V634.182H894.637V818.441H561.016V742.738L535.978 818.441H382.561L353.724 734.563V818.441H55V634.182H89.8976V389.898H55V205.639H434.713L481.496 345.989L526.481 205.639H894.637V389.898Z" fill="white"/>
<path d="M720.28 753.532C720.28 733.524 723.188 715.842 729.004 700.487C735.053 685.132 744.825 670.708 758.318 657.214C771.812 643.488 790.424 629.296 814.154 614.639C821.134 610.219 826.02 606.496 828.811 603.472C831.836 600.215 833.348 596.376 833.348 591.956C833.348 582.417 826.485 577.648 812.759 577.648C802.522 577.648 790.773 580.323 777.512 585.674C764.251 591.025 752.269 597.772 741.567 605.915L720.978 531.583C735.867 524.138 752.967 517.856 772.277 512.738C791.587 507.387 811.014 504.712 830.556 504.712C862.662 504.712 887.556 511.808 905.237 525.999C922.919 540.191 931.759 560.315 931.759 586.372C931.759 600.331 928.619 612.662 922.337 623.364C916.288 633.833 908.843 642.674 900.003 649.886C891.395 657.098 880.111 665.357 866.152 674.663C850.564 684.9 839.048 693.74 831.603 701.185C824.391 708.397 820.785 716.773 820.785 726.312H863.011V706.42H934.551V783.544H720.28V753.532Z" fill="black"/>
<path d="M833.343 592.368C833.252 596.615 831.742 600.316 828.812 603.472C826.02 606.496 821.134 610.219 814.154 614.639L811.945 616.012C789.266 630.183 771.39 643.917 758.318 657.214C744.824 670.708 735.053 685.132 729.004 700.487C723.188 715.842 720.28 733.524 720.28 753.532V783.544H934.552V706.42H863.011V726.311H820.785C820.785 716.773 824.391 708.398 831.603 701.186C839.048 693.741 850.564 684.9 866.151 674.663C879.238 665.939 889.973 658.134 898.357 651.25L900.002 649.886C908.567 642.899 915.822 634.384 921.766 624.34L922.337 623.364C928.423 612.996 931.561 601.1 931.751 587.676L931.759 586.372C931.759 560.722 923.193 540.821 906.06 526.669L905.238 525.999C887.832 512.029 863.438 504.935 832.056 504.717L830.556 504.712C811.014 504.712 791.587 507.387 772.277 512.738C752.967 517.856 735.868 524.138 720.978 531.583L741.568 605.915C751.935 598.026 763.503 591.448 776.273 586.179L777.512 585.674C790.773 580.323 802.522 577.648 812.758 577.648L814.026 577.662C826.907 577.95 833.348 582.715 833.348 591.956L833.343 592.368ZM966.644 588.186C966.377 606.828 961.966 624.694 952.552 640.821L952.554 640.822C952.525 640.872 952.494 640.922 952.465 640.972C952.454 640.991 952.445 641.01 952.434 641.029L952.433 641.027C945.809 652.447 937.762 662.676 928.259 671.522H969.449V818.441H685.382V753.532L685.393 751.348C685.599 728.821 689.007 707.562 696.37 688.126L696.45 687.911L696.536 687.696C701.748 674.464 708.904 662.111 717.735 650.609L679.679 513.216L705.371 500.369C722.719 491.695 742.066 484.652 763.174 479.048C785.372 472.917 807.859 469.814 830.556 469.814C866.792 469.814 900.026 477.663 925.857 497.815L927.082 498.783C954.309 520.636 966.657 551.511 966.657 586.372L966.644 588.186Z" fill="white"/>
</svg>
