<svg width="1024" height="1024" viewBox="0 0 1024 1024" fill="none" xmlns="http://www.w3.org/2000/svg">
<g clip-path="url(#clip0_2015_10)">
<path d="M903.907 339.312H865.54V684.608H903.907V810.449H613.859V684.608H650.69V416.045L520.245 810.449H406.681L272.4 419.881V684.608H309.231V810.449H57.5495V684.608H95.9156V339.312H57.5495V213.471H408.983L488.785 452.876L565.517 213.471H903.907V339.312Z" fill="black"/>
<path d="M650.691 684.608H613.858V810.449H903.906V684.608H865.54V339.312H903.906V213.471H565.518L488.785 452.876L408.983 213.471H57.5492V339.312H95.9154V684.608H57.5492V810.449H309.231V684.608H272.4V419.881L406.681 810.449H520.245L650.691 416.045V684.608ZM961.455 396.862H923.089V627.058H961.455V867.998H0V627.058H38.3661V396.862H0V155.922H450.463L487.712 267.671L523.529 155.922H961.455V396.862Z" fill="white"/>
<path d="M750.586 777.454C750.586 755.457 753.783 736.018 760.177 719.137C766.828 702.256 777.57 686.398 792.405 671.563C807.24 656.472 827.702 640.87 853.791 624.756C861.464 619.897 866.835 615.804 869.905 612.479C873.23 608.898 874.892 604.678 874.892 599.818C874.892 589.332 867.347 584.088 852.256 584.088C841.002 584.088 828.085 587.03 813.506 592.913C798.927 598.795 785.755 606.213 773.989 615.165L751.353 533.445C767.723 525.26 786.522 518.354 807.751 512.727C828.981 506.844 850.338 503.903 871.823 503.903C907.12 503.903 934.488 511.704 953.926 527.306C973.365 542.909 983.085 565.033 983.085 593.68C983.085 609.026 979.632 622.582 972.726 634.348C966.076 645.858 957.891 655.577 948.172 663.506C938.708 671.435 926.303 680.515 910.956 690.746C893.819 702 881.159 711.72 872.974 719.904C865.045 727.833 861.08 737.041 861.08 747.528H907.503V725.659H986.154V810.449H750.586V777.454Z" fill="black"/>
<path d="M874.887 600.272C874.786 604.941 873.126 609.01 869.905 612.479C866.836 615.804 861.464 619.897 853.791 624.756L851.361 626.266C826.428 641.845 806.776 656.944 792.405 671.563C777.57 686.398 766.827 702.256 760.177 719.137C753.783 736.018 750.586 755.458 750.586 777.454V810.448H986.154V725.66H907.503V747.527H861.08C861.081 737.041 865.045 727.834 872.974 719.905C881.158 711.72 893.819 702 910.956 690.746C925.343 681.155 937.145 672.575 946.362 665.007L948.171 663.507C957.587 655.825 965.563 646.464 972.098 635.422L972.726 634.348C979.416 622.95 982.866 609.872 983.075 595.113L983.084 593.68C983.084 565.481 973.667 543.602 954.831 528.043L953.927 527.306C934.792 511.948 907.973 504.149 873.471 503.909L871.823 503.903C850.338 503.903 828.98 506.844 807.751 512.727C786.522 518.354 767.723 525.26 751.354 533.445L773.99 615.165C785.388 606.493 798.105 599.26 812.144 593.468L813.507 592.912C828.085 587.029 841.002 584.089 852.256 584.088L853.649 584.104C867.811 584.421 874.892 589.66 874.892 599.819L874.887 600.272ZM1021.44 595.674C1021.14 616.169 1016.29 635.81 1005.94 653.54L1005.95 653.542C1005.91 653.597 1005.88 653.651 1005.85 653.707C1005.84 653.727 1005.83 653.748 1005.81 653.769L1005.81 653.768C998.531 666.322 989.684 677.568 979.236 687.293H1024.52V848.815H712.22V777.454L712.231 775.053C712.458 750.288 716.205 726.915 724.299 705.547L724.388 705.31L724.482 705.075C730.213 690.527 738.08 676.947 747.789 664.302L705.95 513.253L734.195 499.129C753.267 489.593 774.538 481.85 797.744 475.688C822.147 468.948 846.869 465.537 871.823 465.537C911.66 465.537 948.197 474.166 976.596 496.321L977.942 497.385C1007.88 521.411 1021.45 555.354 1021.45 593.68L1021.44 595.674Z" fill="white"/>
</g>
<defs>
<clipPath id="clip0_2015_10">
<rect width="1024" height="1024" rx="192" fill="white"/>
</clipPath>
</defs>
</svg>
